<?xml version="1.0" encoding="UTF-8"?>
<svg version="1.1" xmlns="http://www.w3.org/2000/svg" xmlns:xlink="http://www.w3.org/1999/xlink">
<defs>

</defs>
<symbol id="i-agenda" viewBox="0 0 16 16" xmlns="http://www.w3.org/2000/svg"><path d="M10.983 4.205h-.855v.788h.855v-.788z"/><path d="M6.827 1.25v9.618a3.892 3.892 0 01-.283 1.457l-.02.047a4.274 4.274 0 01-.1.22c-.006.009-.01.018-.015.028l-.005.009-.002.004a3.902 3.902 0 01-.93 1.18h.003a3.843 3.843 0 01-1.532.808l-.056.014a3.81 3.81 0 01-.837.115h-.106 9.368l.005-.004a3.888 3.888 0 003.678-3.678l.005-.005V1.249H6.827zM9.19 3.266h2.73V5.93H9.19V3.267zm4.577 8.649h-4.63v-.938h4.63v.938zm0-1.962h-4.63v-.938h4.63v.938zm0-1.961h-4.63v-.938h4.63v.938z"/><path d="M5.889 4.487H4.48v6.516c0 .84-.684 1.524-1.524 1.524h-.13c-.84 0-1.524-.684-1.524-1.524V8.749H0v2.12a2.948 2.948 0 002.944 2.944h.08l.065-.004h.013l.045-.003a.447.447 0 00.045-.003c.043-.004.085-.008.127-.014h.003l.067-.01.062-.01.008-.001.007-.001.072-.014a1.53 1.53 0 00.126-.029l.007-.001.02-.006.009-.002a2.9 2.9 0 00.189-.057l.003-.001.064-.022a2.945 2.945 0 001.26-.892l.045-.057a2.557 2.557 0 00.238-.353 2.861 2.861 0 00.292-.71l.01-.04a3.183 3.183 0 00.068-.378l.005-.048.005-.05c0-.016.002-.031.003-.046.004-.048.005-.096.006-.144v-.024a.62.62 0 000-.025V4.487z"/><path d="M2.24 6.578v4.424c0 .324.264.587.587.587h.13a.587.587 0 00.586-.587V6.578H2.241z"/></symbol>
<symbol id="i-arrcomm" viewBox="0 0 5 20" xmlns="http://www.w3.org/2000/svg"><path d="M.775 3.865C.197 2.271 1.575 0 3.27 0H5v20C3.298 11.732 1.832 6.776.775 3.865z"/></symbol>
<symbol id="i-arrow-bottom" viewBox="0 0 10 6" fill="none" xmlns="http://www.w3.org/2000/svg"><path fill-rule="evenodd" clip-rule="evenodd" d="M.333 0L5 5.467 9.667 0H.333z" fill="#222"/></symbol>
<symbol id="i-arrowup" viewBox="0 0 18 25" xmlns="http://www.w3.org/2000/svg"><path d="M8.136.349L.358 7.925a1.169 1.169 0 000 1.683 1.245 1.245 0 001.728 0l5.692-5.543v19.744C7.778 24.468 8.325 25 9 25c.675 0 1.222-.533 1.222-1.19V4.064l5.692 5.543a1.245 1.245 0 001.728 0 1.169 1.169 0 000-1.683L9.864.349a1.245 1.245 0 00-1.728 0z"/></symbol>
<symbol id="i-bell" viewBox="0 0 18 20" xmlns="http://www.w3.org/2000/svg"><path fill-rule="evenodd" clip-rule="evenodd" d="M2.515 14l1.18-1.182c.378-.378.586-.88.586-1.414V6.727c0-1.357.59-2.654 1.62-3.556a4.66 4.66 0 013.737-1.129c2.327.31 4.082 2.413 4.082 4.895v4.467c0 .534.208 1.036.585 1.413L15.485 14H2.516zM11 16.341c0 .9-.916 1.66-2 1.66s-2-.76-2-1.66v-.34h4v.34zm6.52-3.133l-1.8-1.804V6.937C15.72 3.457 13.218.5 9.9.06a6.722 6.722 0 00-5.317 1.607 6.728 6.728 0 00-2.302 5.06l-.001 4.677-1.801 1.804a1.631 1.631 0 00-.354 1.782C.38 15.604.973 16 1.637 16H5v.341c0 2.018 1.794 3.66 4 3.66s4-1.642 4-3.66v-.34h3.363c.664 0 1.256-.397 1.51-1.01a1.63 1.63 0 00-.352-1.783z"/></symbol>
<symbol id="i-bookmarks" viewBox="0 0 14 18" xmlns="http://www.w3.org/2000/svg"><path fill-rule="evenodd" clip-rule="evenodd" d="M6.821 12.506c.17 0 .34.043.492.129L12 15.285V2.335c0-.201-.12-.334-.2-.334H2.2c-.08 0-.2.133-.2.334v12.9l4.306-2.585c.16-.095.337-.143.515-.143zM1.001 18a1 1 0 01-1-1V2.334C0 1.047.986 0 2.2 0h9.6C13.012 0 14 1.047 14 2.334V17a1 1 0 01-1.493.87l-5.672-3.207-5.322 3.195A1.006 1.006 0 011 18z"/></symbol>
<symbol id="i-cart" viewBox="0 0 16 16" xmlns="http://www.w3.org/2000/svg"><path d="M2.946 7.465h1.07v1.07h-1.07v-1.07z" fill="#9DA1A6"/><path d="M0 14.276C0 15.226.773 16 1.724 16h12.552c.95 0 1.724-.773 1.724-1.724V4.954H0v9.322zm6.494-7.749h7.029a.469.469 0 010 .938h-7.03a.469.469 0 010-.938zm0 2.008h7.029a.469.469 0 010 .938h-7.03a.469.469 0 110-.938zm-4.486-1.54c0-.258.21-.468.47-.468h2.007c.26 0 .47.21.47.469v2.008c0 .26-.21.469-.47.469H2.477a.469.469 0 01-.469-.469V6.996zm.47 3.549h11.045a.469.469 0 110 .937H2.477a.469.469 0 110-.937zm0 2.008h11.045a.469.469 0 010 .938H2.477a.469.469 0 110-.938zM14.276 0H1.724C.774 0 0 .773 0 1.724v2.293h16V1.724C16 .774 15.227 0 14.276 0zm-2.761 2.946h-7.03a.469.469 0 010-.938h7.03a.469.469 0 110 .938z"/></symbol>
<symbol id="i-chat" viewBox="0 0 20 19" xmlns="http://www.w3.org/2000/svg"><path fill-rule="evenodd" clip-rule="evenodd" d="M5 8a1 1 0 112 0 1 1 0 01-2 0zm5-1a1 1 0 100 2 1 1 0 000-2zm4 0a1 1 0 100 2 1 1 0 000-2zm4 6c0 .551-.449 1-1 1H6.554c-.543 0-1.077.148-1.544.428L2 16.234V3c0-.551.449-1 1-1h14c.551 0 1 .449 1 1v10zM17 0H3C1.346 0 0 1.346 0 3v15a1 1 0 001.515.857l4.524-2.714A.997.997 0 016.554 16H17c1.654 0 3-1.346 3-3V3c0-1.654-1.346-3-3-3z"/></symbol>
<symbol id="i-close" viewBox="0 0 12 12" xmlns="http://www.w3.org/2000/svg"><path d="M11.595 2.364L7.957 6l3.636 3.636a1.385 1.385 0 01-1.957 1.959L6 7.958l-3.636 3.636a1.38 1.38 0 01-1.958 0 1.385 1.385 0 010-1.958L4.042 6 .406 2.364A1.385 1.385 0 012.363.405L6 4.042 9.636.405a1.385 1.385 0 011.959 1.959z"/></symbol>
<symbol id="i-date" viewBox="0 0 18 20" xmlns="http://www.w3.org/2000/svg"><path fill-rule="evenodd" clip-rule="evenodd" d="M4 14c0-.55.45-1 1-1s1 .45 1 1-.45 1-1 1-1-.45-1-1zm5-1h4c.55 0 1 .45 1 1s-.45 1-1 1H9c-.55 0-1-.45-1-1s.45-1 1-1zm6 5H3c-.551 0-1-.449-1-1v-6h14v6c0 .551-.449 1-1 1M3 4h1v1c0 .55.45 1 1 1s1-.45 1-1V4h6v1c0 .55.45 1 1 1s1-.45 1-1V4h1c.551 0 1 .449 1 1v4H2V5c0-.551.449-1 1-1m12-2h-1V1c0-.55-.45-1-1-1s-1 .45-1 1v1H6V1c0-.55-.45-1-1-1S4 .45 4 1v1H3C1.346 2 0 3.346 0 5v12c0 1.654 1.346 3 3 3h12c1.654 0 3-1.346 3-3V5c0-1.654-1.346-3-3-3"/></symbol>
<symbol id="i-dislike" viewBox="0 0 18 18" xmlns="http://www.w3.org/2000/svg"><path d="M9.307 16.135c-.031.306-.057.558-.091.771a2 2 0 01-.117.466c-.042.096-.08.132-.11.151-.032.02-.1.049-.249.049-.466 0-1.03-.207-1.477-.586-.44-.374-.734-.887-.734-1.486 0-.725.097-1.83.197-2.768a75.107 75.107 0 01.182-1.547l.013-.097.003-.025v-.006l.001-.002.065-.485H2.315c-.688 0-1.138-.216-1.422-.54C.6 9.694.429 9.183.429 8.5c0-.56.109-.832.242-1.165l.002-.004.002-.006C.753 7.13.845 6.9.917 6.6v-.001c.076-.32.05-.653.03-.93l-.002-.03C.908 5.146.88 4.7 1.133 4.192c.229-.456.533-.76.844-1.065l.03-.029c.256-.251.563-.552.71-.95l.002-.004.012-.034c.096-.262.25-.672.605-1.023.343-.34.908-.658 1.891-.658H9c1.627 0 2.487.196 2.953.564.427.338.616.905.614 2.006v5.697c-.66.478-1.279 1.312-1.778 2.222-.56 1.018-1.007 2.2-1.21 3.251-.147.766-.215 1.42-.27 1.944l-.002.022zm8.257-7.309a.857.857 0 01-.244.494l.302.302-.302-.302a.857.857 0 01-.494.244 2.98 2.98 0 01-.326.007c-.213 0-.277 0-.325-.007a.857.857 0 01-.74-.738v-.001a2.966 2.966 0 01-.007-.325v-7c0-.213.001-.277.008-.325v-.001a.857.857 0 01.736-.738c.05-.006.118-.007.328-.007.213 0 .278 0 .326.007a.857.857 0 01.738.738c.006.049.007.113.007.326v7c0 .213 0 .278-.007.326z"/></symbol>
<symbol id="i-doc" viewBox="0 0 19 22" fill="none" xmlns="http://www.w3.org/2000/svg"><path d="M15.813 0H2.52C1.13 0 0 1.13 0 2.52v16.958c0 1.39 1.13 2.52 2.52 2.52h13.293c1.39 0 2.52-1.13 2.52-2.52V2.52A2.522 2.522 0 0015.813 0zM6.416 16.73c0 .884-.719 1.604-1.604 1.604H3.438a.688.688 0 01-.688-.687v-4.125c0-.38.308-.688.688-.688h1.374c.885 0 1.605.72 1.605 1.605v2.29zm4.583 0c0 .884-.72 1.604-1.605 1.604h-.457c-.885 0-1.605-.719-1.605-1.604v-2.293c0-.884.719-1.604 1.605-1.604h.457c.885 0 1.605.719 1.605 1.604v2.293zm2.522.228h1.375a.688.688 0 010 1.375h-1.375c-.884 0-1.605-.72-1.605-1.605v-2.29c0-.885.72-1.605 1.605-1.605h1.375a.688.688 0 010 1.375h-1.375a.23.23 0 00-.23.23v2.292a.23.23 0 00.23.228z" fill="#3580E0"/></symbol>
<symbol id="i-doc2" viewBox="0 0 19 22" fill="none" xmlns="http://www.w3.org/2000/svg"><path d="M4.813 14.208h-.688v2.75h.688a.23.23 0 00.23-.23v-2.29a.23.23 0 00-.23-.23zM9.397 14.208h-.458a.23.23 0 00-.23.23v2.292c0 .126.104.23.23.23h.458a.23.23 0 00.23-.23v-2.293a.232.232 0 00-.23-.23z" fill="#9DA1A6"/><path d="M15.813 0H2.52C1.13 0 0 1.13 0 2.52v16.958c0 1.39 1.13 2.52 2.52 2.52h13.293c1.39 0 2.52-1.13 2.52-2.52V2.52A2.522 2.522 0 0015.813 0zM6.416 16.73c0 .884-.719 1.604-1.604 1.604H3.438a.688.688 0 01-.688-.687v-4.125c0-.38.308-.688.688-.688h1.374c.885 0 1.605.72 1.605 1.605v2.29zm4.583 0c0 .884-.72 1.604-1.605 1.604h-.457c-.885 0-1.605-.719-1.605-1.604v-2.293c0-.884.719-1.604 1.605-1.604h.457c.885 0 1.605.719 1.605 1.604v2.293zm2.522.228h1.375a.688.688 0 010 1.375h-1.375c-.884 0-1.605-.72-1.605-1.605v-2.29c0-.885.72-1.605 1.605-1.605h1.375a.688.688 0 010 1.375h-1.375a.23.23 0 00-.23.23v2.292a.23.23 0 00.23.228z" fill="#9DA1A6"/></symbol>
<symbol id="i-door" viewBox="0 0 16 16" xmlns="http://www.w3.org/2000/svg"><path d="M15.95 7.079a.674.674 0 00-.145-.218l-2-1.999a.667.667 0 00-.942.943l.862.862H10A.666.666 0 1010 8h3.724l-.862.862a.666.666 0 10.942.943l2-2a.667.667 0 00.145-.727z"/><path d="M11.334 9.333a.666.666 0 00-.667.667v3.333H8V2.667a.667.667 0 00-.475-.639L5.21 1.333h5.457v3.334a.666.666 0 101.334 0v-4A.666.666 0 0011.334 0H.667C.643 0 .622.01.598.013A.668.668 0 00.316.11C.3.121.283.121.269.132.264.136.262.143.256.147A.66.66 0 00.08.358C.07.376.068.395.06.414.04.464.016.514.008.57.004.59.01.609.01.628.01.641 0 .653 0 .667V14c0 .318.225.591.536.653l6.667 1.334A.666.666 0 008 15.334v-.667h3.334A.667.667 0 0012 14v-4a.666.666 0 00-.667-.667z"/></symbol>
<symbol id="i-download" viewBox="0 0 24 24" xmlns="http://www.w3.org/2000/svg"><path fill-rule="evenodd" clip-rule="evenodd" d="M11.003 12.076A1.06 1.06 0 0111 12V4a1 1 0 112 0v8l2.4-1.8a1 1 0 111.2 1.6l-4 3a1 1 0 01-1.175.018l-4-2.814a1 1 0 111.15-1.636l2.428 1.708zM6 17v1h12v-1c0-.55.45-1 1-1s1 .45 1 1v2c0 .55-.45 1-1 1H5c-.55 0-1-.45-1-1v-2c0-.55.45-1 1-1s1 .45 1 1z"/></symbol>
<symbol id="i-facebook" viewBox="0 0 44 44" fill="none" xmlns="http://www.w3.org/2000/svg"><path fill-rule="evenodd" clip-rule="evenodd" d="M22 0C9.85 0 0 9.85 0 22s9.85 22 22 22 22-9.85 22-22S34.15 0 22 0z" fill="#157DC3"/><path d="M23.785 33V22.965h3.539l.528-3.911h-4.067V16.56c0-1.136.328-1.9 2.039-1.9H28v-3.51c-.38-.05-1.669-.15-3.169-.15-3.137 0-5.282 1.82-5.282 5.168v2.886H16v3.911h3.55V33h4.235z" fill="#fff"/></symbol>
<symbol id="i-google" viewBox="0 0 44 44" fill="none" xmlns="http://www.w3.org/2000/svg"><path fill-rule="evenodd" clip-rule="evenodd" d="M22 0C9.85 0 0 9.85 0 22s9.85 22 22 22 22-9.85 22-22S34.15 0 22 0z" fill="#F5F7F8"/><path d="M15.094 22c0-1.288.355-2.495.971-3.528v-4.383h-4.383A12.902 12.902 0 009 22c0 2.899.943 5.652 2.682 7.911h4.383v-4.383A6.865 6.865 0 0115.094 22z" fill="#FBBD00"/><path d="M22 28.906l-3.047 3.047L22 35c2.898 0 5.652-.943 7.911-2.682V27.94h-4.378a6.906 6.906 0 01-3.533.966z" fill="#0F9D58"/><path d="M16.065 25.528l-4.383 4.383c.345.447.72.875 1.125 1.281A12.915 12.915 0 0022 35v-6.094a6.909 6.909 0 01-5.935-3.378z" fill="#31AA52"/><path d="M35 22c0-.791-.072-1.583-.213-2.355l-.114-.625H22v6.094h6.168a6.875 6.875 0 01-2.635 2.825l4.378 4.379c.447-.345.875-.72 1.281-1.126A12.915 12.915 0 0035 22z" fill="#3C79E6"/><path d="M26.884 17.116l.538.54 4.309-4.31-.539-.538A12.915 12.915 0 0022 9l-3.047 3.047L22 15.094c1.845 0 3.579.718 4.884 2.022z" fill="#CF2D48"/><path d="M22 15.094V9a12.915 12.915 0 00-9.192 3.808c-.406.405-.781.834-1.125 1.281l4.382 4.383A6.91 6.91 0 0122 15.094z" fill="#EB4132"/></symbol>
<symbol id="i-gos" viewBox="0 0 44 44" fill="none" xmlns="http://www.w3.org/2000/svg"><path fill-rule="evenodd" clip-rule="evenodd" d="M22 0C9.85 0 0 9.85 0 22s9.85 22 22 22 22-9.85 22-22S34.15 0 22 0z" fill="#F5F7F8"/><path d="M19.31 22.28h-3.046c-.03 0-.046.014-.062.044a16.855 16.855 0 01-.715 3.953c0 .015 0 .03.016.046.015.015.03.015.046.015h1.042c.03 0 .046-.015.046-.03.296-.906.529-2.083.622-3.078h.995v3.062c0 .03.031.06.062.06h.995c.031 0 .062-.03.062-.06v-3.968c0-.03-.031-.045-.062-.045zm12.887 0h-.995c-.031 0-.062.03-.062.06v3.062c-.218.06-.435.09-.684.09-.653 0-.808-.195-.808-1.04v-2.113c0-.03-.031-.06-.063-.06h-.979c-.03 0-.062.03-.062.06v2.218c0 1.388.482 1.916 1.71 1.916.7 0 1.492-.18 1.958-.347.016-.015.031-.03.031-.045V22.34c.016-.045-.015-.06-.046-.06zm-21.078 0h-1.01c-.031 0-.047.014-.047.044-.155.604-.482 1.63-.917 2.701l-1.01-2.7c-.016-.016-.031-.03-.047-.03H7.062c-.015 0-.03.014-.046.03-.016.014-.016.03 0 .045l1.523 4.043c-.156.317-.295.573-.435.815a9.36 9.36 0 00-.296.543c-.015.015-.015.03 0 .045.016.015.031.03.047.03h1.104c.015 0 .046-.015.046-.03.187-.347.42-.83.638-1.328a37.505 37.505 0 001.554-4.133c0-.016 0-.03-.016-.046-.03-.03-.046-.03-.062-.03zm3.622 3.122c0-.015-.016-.03-.031-.03h-.047c-.248.09-.7.15-1.01.15-.7 0-1.026-.18-1.026-1.206 0-.83.109-1.207 1.026-1.207.264 0 .497.03.808.12.031 0 .047 0 .062-.03.11-.21.249-.467.405-.784v-.045c0-.015-.016-.03-.032-.03a4.82 4.82 0 00-1.32-.197c-1.446 0-2.1.664-2.1 2.158 0 1.509.654 2.187 2.1 2.187.357 0 1.087-.075 1.43-.21.03-.016.046-.046.03-.076l-.295-.8zm9.466-3.123h-1.01c-.031 0-.047.015-.047.045-.155.619-.482 1.63-.917 2.701l-1.01-2.7c-.016-.016-.031-.03-.047-.03H20.15c-.015 0-.03.014-.046.03-.016.014-.016.03 0 .045l1.523 4.043a13.02 13.02 0 01-.435.815 6.42 6.42 0 00-.296.558c-.015.015-.015.03 0 .045.016.015.031.03.047.03h1.104c.015 0 .046-.015.046-.03.187-.347.42-.83.638-1.328.637-1.478 1.165-2.866 1.554-4.133 0-.015 0-.03-.015-.046-.032-.045-.047-.045-.063-.045zm3.73 0H25c-.031 0-.062.03-.062.06v3.968c0 .03.03.06.062.06h.995c.03 0 .062-.03.062-.06v-3.062h1.539c.015 0 .046-.015.046-.03.125-.272.234-.559.358-.845v-.046c-.031-.045-.047-.045-.062-.045" fill="#EF4058"/><path d="M12.3 16.184c-1.43 0-1.99.604-1.99 2.127 0 1.554.56 2.158 1.99 2.158 1.446 0 2.006-.604 2.006-2.158 0-1.539-.56-2.127-2.005-2.127zm0 3.395c-.652 0-.854-.166-.854-1.253 0-1.146.217-1.252.854-1.252.653 0 .871.106.871 1.252 0 1.087-.202 1.253-.87 1.253zm5.985-.166c0-.015-.016-.03-.031-.03h-.047c-.248.09-.7.15-1.01.15-.7 0-1.026-.18-1.026-1.207 0-.83.109-1.207 1.026-1.207.264 0 .497.03.808.121.031 0 .047 0 .062-.03.11-.211.25-.468.404-.785v-.045c0-.015-.015-.03-.03-.03a4.82 4.82 0 00-1.322-.196c-1.445 0-2.098.664-2.098 2.157 0 1.509.653 2.188 2.098 2.188.358 0 1.088-.075 1.43-.211.031-.015.047-.046.031-.076l-.295-.8zM10 16.29H7.062c-.03 0-.062.03-.062.06v3.968c0 .03.031.06.062.06h.995c.031 0 .062-.03.062-.06V17.24h1.523c.016 0 .047-.015.047-.03.124-.272.233-.558.358-.845v-.045c-.016-.015-.032-.03-.047-.03z" fill="#1466AC"/><path d="M35.048 23c-.014.592-.037 1.15-.066 1.648v.12c0 .06 0 .106-.016.166v.03c0 .046 0 .091-.016.136 0 .038-.003.076-.007.114a1.102 1.102 0 00-.008.113c0 .045 0 .075-.016.105v.06c0 .03-.003.057-.007.084a.547.547 0 00-.008.083v.09c0 .045 0 .09-.016.12-.046.62-.093.997-.093.997-.093.92-.668 2.112-1.368 2.987-.28.347-.575.634-.87.845-.007 0-.082.053-.215.148-.186.131-.485.343-.873.606a55.637 55.637 0 01-3.11 1.931 50.688 50.688 0 01-4.383 2.233l-.062.03a.792.792 0 01-.054.023c-.02.008-.039.015-.055.023a5.612 5.612 0 01-1.274.301 5.03 5.03 0 01-.684.046h-.311c-.793-.015-1.539-.151-2.067-.393 0 0-.11-.045-.311-.135a.08.08 0 00-.031-.016c-.012-.003-.024-.007-.031-.015a.083.083 0 00-.024-.015.08.08 0 01-.023-.015c-.008 0-.012-.004-.016-.007-.004-.004-.007-.008-.015-.008a.056.056 0 01-.023-.007c-.008-.004-.016-.008-.024-.008a.084.084 0 00-.032-.018c-.008-.003-.018-.006-.03-.012h-.015c-.793-.302-2.285-1.026-3.87-1.931-2.122-1.202-3.343-2.075-4.024-2.562a74.53 74.53 0 00-.174-.124c-.176-.125-.31-.24-.426-.34-.262-.224-.43-.369-.786-.369H8.417c-.466 0-.466.392-.358.543.482.694 1.01 1.237 1.601 1.66.078.06 1.974 1.418 4.368 2.791.125.075.249.15.389.211a62.07 62.07 0 004.019 2.037c.127.059.205.095.224.106.762.331 1.757.528 2.814.558h.218c.14 0 .28 0 .42-.015.155 0 .31-.015.466-.03.792-.076 1.538-.257 2.129-.513 0 0 .015 0 .015-.015l.047-.022c.405-.184 2.373-1.078 4.555-2.317a57.496 57.496 0 003.217-1.992c.684-.467 1.12-.769 1.15-.8.373-.27.731-.618 1.073-1.01.87-1.01 1.57-2.354 1.834-3.576 0-.015 0-.03.016-.045.009-.06.022-.119.035-.176.01-.044.02-.086.027-.126v-.045c.015-.06.015-.12.015-.166 0-.01.005-.049.012-.117.017-.155.05-.454.082-.864v-.06c.03-.045.03-.09.03-.15v-.061c0-.03 0-.076.016-.106.047-.558.078-1.237.11-2.021v-.06l.017-.683h-1.91z" fill="#F04159"/><path d="M36.959 23a43.916 43.916 0 00-.019-2.697v-.06a50.64 50.64 0 00-.109-2.022c0-.03 0-.076-.015-.106v-.06c0-.03-.004-.057-.008-.083-.004-.027-.008-.053-.008-.083v-.06c-.046-.589-.078-.951-.093-.981 0-.033-.005-.065-.009-.095a.549.549 0 01-.007-.071v-.045a2.09 2.09 0 00-.062-.302c0-.015 0-.03-.015-.046-.264-1.222-.964-2.564-1.834-3.575-.342-.393-.7-.74-1.073-1.011a49.737 49.737 0 00-4.368-2.791c-2.3-1.313-4.337-2.233-4.617-2.339-.007 0-.01-.003-.013-.007l-.002-.008a7.305 7.305 0 00-2.13-.513 4.822 4.822 0 00-.466-.03C21.956 6 21.816 6 21.676 6h-.218c-1.057.03-2.036.211-2.813.558-.109.046-2.176.966-4.524 2.309l-.093.045a51.045 51.045 0 00-4.368 2.79c-.59.423-1.119.967-1.6 1.66-.11.151-.11.544.357.544h1.197c.355 0 .524-.145.786-.37.116-.1.25-.214.426-.34l.065-.046c.656-.466 1.907-1.355 4.132-2.639a52.494 52.494 0 013.98-2.052c.007 0 .015-.004.023-.007a.056.056 0 01.023-.008s.015 0 .015-.015c0 0 .016 0 .016-.015.016 0 .031-.015.031-.015a.057.057 0 00.023-.008.056.056 0 01.024-.007c.186-.09.31-.136.31-.136.53-.226 1.275-.377 2.068-.392h.31c.234 0 .467.015.685.045.482.06.917.15 1.274.302a.727.727 0 00.055.022c.02.008.039.015.054.023 0 0 .016.015.062.03.358.151 2.285 1.041 4.384 2.233a50.387 50.387 0 014.197 2.686c.295.21.59.513.87.845.7.875 1.275 2.066 1.368 2.987 0 .015.047.377.093.995 0 .046 0 .076.016.121v.09c0 .03.004.057.008.084a.546.546 0 01.007.083v.06c0 .03 0 .076.016.106 0 .037.004.075.008.113.004.037.008.075.008.113 0 .045 0 .09.015.136v.03c0 .06 0 .106.016.166v.12A46.378 46.378 0 0135.048 23h1.91z" fill="#1466AC"/></symbol>
<symbol id="i-import" viewBox="0 0 20 18" xmlns="http://www.w3.org/2000/svg"><path fill-rule="evenodd" clip-rule="evenodd" d="M10 0a6.018 6.018 0 015.675 4.045A5.008 5.008 0 0120 9a4.995 4.995 0 01-1.25 3.309 1 1 0 11-1.5-1.325A2.994 2.994 0 0018 9c0-1.654-1.346-3-3-3h-.1a1 1 0 01-.98-.803A4.006 4.006 0 0010 2a4.005 4.005 0 00-3.92 3.197A1.001 1.001 0 015.1 6H5C3.346 6 2 7.346 2 9c0 .732.266 1.438.75 1.984a1 1 0 11-1.499 1.325A4.991 4.991 0 010 8.999a5.008 5.008 0 014.325-4.954A6.02 6.02 0 0110 0zm-.695 8.28a1.003 1.003 0 011.402.013l3 3a.999.999 0 11-1.414 1.414L11 11.414V17a1 1 0 11-2 0v-5.644l-1.305 1.26a1 1 0 01-1.39-1.439l3-2.897z"/></symbol>
<symbol id="i-lamp" viewBox="0 0 16 16" xmlns="http://www.w3.org/2000/svg"><path d="M8 2.305a.5.5 0 01-.5-.5V.5a.5.5 0 011 0v1.305a.5.5 0 01-.5.5zM12.38 4.12a.5.5 0 01-.353-.854l.923-.923a.5.5 0 11.707.707l-.922.923a.501.501 0 01-.354.146zM15.5 8.5h-1.305a.5.5 0 010-1H15.5a.5.5 0 010 1zM13.303 13.803a.496.496 0 01-.353-.146l-.923-.923a.5.5 0 11.708-.707l.922.922a.5.5 0 01-.354.854zM2.697 13.803a.5.5 0 01-.353-.854l.922-.922a.5.5 0 01.707.707l-.922.923a.499.499 0 01-.354.146zM1.805 8.5H.5a.5.5 0 010-1h1.305a.5.5 0 010 1zM3.62 4.12a.496.496 0 01-.354-.147l-.923-.923a.5.5 0 11.708-.707l.922.922a.5.5 0 01-.354.854zM10 14v.833C10 15.473 9.473 16 8.833 16H7.167C6.607 16 6 15.573 6 14.64V14h4zM10.94 4.373A4.684 4.684 0 007 3.44c-1.767.367-3.2 1.807-3.567 3.573-.373 1.814.307 3.614 1.76 4.714.394.293.667.746.76 1.273v.007C5.967 13 5.987 13 6 13h4c.013 0 .02 0 .033.007V13c.094-.507.394-.973.854-1.333A4.657 4.657 0 0012.667 8a4.648 4.648 0 00-1.727-3.627zm-.44 3.96a.504.504 0 01-.5-.5C10 6.82 9.18 6 8.167 6a.504.504 0 01-.5-.5c0-.273.226-.5.5-.5A2.84 2.84 0 0111 7.833c0 .274-.227.5-.5.5z"/><path d="M5.953 13H6c-.013 0-.033 0-.047.007V13zM10.033 13v.007C10.02 13 10.013 13 10 13h.033z"/></symbol>
<symbol id="i-like" viewBox="0 0 18 18" xmlns="http://www.w3.org/2000/svg"><path d="M8.693 1.865c.031-.306.057-.558.091-.771a2 2 0 01.117-.466c.042-.096.08-.132.11-.151.032-.02.1-.049.249-.049.466 0 1.03.207 1.476.586.441.374.735.887.735 1.486 0 .725-.097 1.83-.197 2.768a76.193 76.193 0 01-.182 1.547l-.013.097-.003.025v.006l-.001.002-.065.485h4.675c.688 0 1.138.216 1.422.54.293.335.464.846.464 1.53 0 .56-.109.832-.242 1.165l-.002.004-.002.006c-.078.195-.17.425-.242.726v.001c-.076.32-.05.653-.03.93l.002.03c.037.492.065.939-.188 1.446-.229.456-.534.76-.844 1.065l-.03.029c-.256.251-.563.552-.71.95l-.002.004-.012.034c-.096.262-.25.672-.605 1.023-.343.34-.908.658-1.891.658H9c-1.627 0-2.487-.196-2.953-.564-.427-.338-.616-.905-.614-2.006V9.304c.66-.478 1.279-1.312 1.778-2.221.56-1.019 1.007-2.201 1.21-3.252.147-.766.215-1.42.27-1.944l.002-.022zM.436 16.826A2.977 2.977 0 01.43 16.5v-7c0-.213 0-.278.007-.326l-.425-.057.425.057a.857.857 0 01.738-.738A2.98 2.98 0 011.5 8.43c.213 0 .277 0 .325.007a.857.857 0 01.74.738v.001c.006.048.007.112.007.325v7c0 .213-.001.277-.008.325v.001a.857.857 0 01-.736.738c-.05.006-.118.007-.328.007-.213 0-.278 0-.327-.007a.857.857 0 01-.737-.738z"/></symbol>
<symbol id="i-loading" viewBox="0 0 18 18" xmlns="http://www.w3.org/2000/svg"><path fill-rule="evenodd" clip-rule="evenodd" d="M17.303 10.426a1.001 1.001 0 00-1.256.65C15.11 14.022 12.352 16 9.184 16 5.222 16 2 12.86 2 9s3.222-7 7.184-7c1.728 0 3.358.602 4.645 1.67l-2.166-.357a.99.99 0 00-1.15.823.999.999 0 00.824 1.149l4.246.702a1.025 1.025 0 00.507-.048c.037-.014.067-.04.103-.06.066-.033.135-.063.192-.111.036-.03.06-.071.09-.105.047-.05.097-.096.132-.156.025-.043.035-.094.054-.142.024-.06.056-.114.068-.18l.754-4a1 1 0 10-1.966-.37l-.272 1.44A9.23 9.23 0 009.185 0C4.12 0 0 4.037 0 9s4.12 9 9.184 9c4.042 0 7.566-2.54 8.77-6.318a1.001 1.001 0 00-.65-1.256z"/></symbol>
<symbol id="i-logo" viewBox="0 0 170 30" fill="none" xmlns="http://www.w3.org/2000/svg"><path d="M34.413 14.464v-3.068H45.47v3.068h-3.788V24h-3.49v-9.536h-3.779zM50.6 24V11.396h5.959c1.834 0 3.202.452 4.105 1.354.744.744 1.116 1.74 1.116 2.988 0 .932-.229 1.723-.686 2.373-.457.65-1.093 1.149-1.907 1.494L62.192 24h-4.034l-2.54-3.814h-1.53V24H50.6zm3.49-6.548h2.302c.592 0 1.052-.135 1.38-.404.328-.275.492-.653.492-1.134 0-.486-.167-.855-.5-1.107-.329-.258-.792-.387-1.39-.387h-2.285v3.032zm12.89 1.02v-7.076h3.541v7.005c0 .885.205 1.553.615 2.004.41.451.98.677 1.706.677s1.294-.217 1.705-.65c.41-.434.615-1.081.615-1.943v-7.093h3.55v6.988c0 1.002-.137 1.878-.412 2.628-.276.75-.674 1.36-1.196 1.828a5.111 5.111 0 01-1.863 1.055c-.715.228-1.526.342-2.434.342-1.846 0-3.279-.477-4.298-1.432-1.02-.961-1.53-2.406-1.53-4.333zM84.376 24V11.396h10.134v2.971h-6.68v1.907h6.047v2.76h-6.047v1.995H94.6V24H84.377zm16.362 0V11.396h.932v5.836h8.068v-5.835h.932V24h-.932v-5.906h-8.068V24h-.932zm16.722-6.302c0-.855.152-1.675.457-2.46a6.783 6.783 0 011.274-2.084 5.991 5.991 0 012.022-1.432 6.303 6.303 0 012.593-.537c.931 0 1.796.18 2.592.537a5.818 5.818 0 012.004 1.424 6.54 6.54 0 011.266 2.074c.305.785.457 1.611.457 2.478a6.69 6.69 0 01-.466 2.47 6.691 6.691 0 01-1.274 2.083 5.993 5.993 0 01-2.022 1.433 6.3 6.3 0 01-2.593.536 6.351 6.351 0 01-2.592-.528 5.918 5.918 0 01-2.004-1.432 6.765 6.765 0 01-1.257-2.075 6.853 6.853 0 01-.457-2.487zm.967 0c0 1.032.228 1.98.685 2.848a5.352 5.352 0 001.934 2.056c.826.51 1.746.765 2.76.765 1.013 0 1.93-.252 2.751-.756a5.227 5.227 0 001.916-2.056c.457-.862.685-1.814.685-2.857 0-.767-.138-1.5-.413-2.197a5.472 5.472 0 00-1.116-1.802 5.112 5.112 0 00-1.714-1.213 5.107 5.107 0 00-2.145-.457c-1.013 0-1.93.255-2.75.765a5.247 5.247 0 00-1.917 2.048c-.451.861-.676 1.813-.676 2.856zM136.908 24V11.396h.879l5.062 7.454 5.054-7.454h.887V24h-.94V13.058l-4.983 7.25h-.071l-4.992-7.25V24h-.896zm19.227 0V11.396h8.964v.87h-8.033v4.949h7.225v.861h-7.225v5.063h8.121V24h-9.052z" fill="#222"/><path d="M.005 16.559v-5.555c0-.119-.042-.238.112-.318.057-.026.028-.119.028-.172 0-.08-.014-.172.099-.212.042-.013.042-.066.042-.106 0-.066 0-.133.098-.16.014 0 .042-.039.042-.052 0-.226.224-.318.35-.464.099-.12.239-.212.351-.318l.379-.358c.112-.12.238-.212.336-.332.099-.119.225-.212.351-.318l.35-.331c.113-.106.225-.212.351-.318l.35-.332a7.87 7.87 0 00.337-.331c.112-.106.239-.225.35-.332.113-.106.225-.225.337-.33l.365-.346c.112-.106.224-.212.35-.318.113-.106.24-.212.351-.318l.365-.344c.112-.107.224-.226.336-.332.113-.106.225-.225.337-.331.126-.106.224-.212.35-.318l.38-.358c.111-.12.238-.212.336-.332.098-.119.224-.212.35-.318.113-.106.239-.212.351-.318.112-.106.224-.225.337-.331l.378-.358c.126-.106.225-.226.35-.318.127-.093.225-.2.337-.319.113-.119.239-.238.365-.344.112-.106.21-.212.337-.318.112-.093.182-.226.35-.212.042 0 .056-.027.07-.067a.095.095 0 01.085-.053c.098-.013.182-.013.238-.106.028-.053.112-.026.182-.026.084 0 .183.013.225-.093.028-.053.084-.04.126-.04h1.122c.042 0 .098-.013.112.027.056.119.168.092.266.106.07 0 .155 0 .183.092.014.027.028.04.056.04.182-.013.266.12.364.226.014.013.028.04.056.04.253.013.337.225.491.344.127.093.225.212.337.318.126.106.238.225.364.345l.337.318.379.358c.098.106.21.199.322.305.127.119.253.252.393.358.112.106.224.225.35.318.113.093.225.212.337.305l.379.358c.112.106.224.212.336.331.113.12.239.225.35.331l.337.318.365.345c.112.106.225.212.323.318l.378.358c.113.106.225.212.337.332l.35.331.351.331.337.319c.126.106.238.225.364.344l.337.318.35.332c.113.106.225.225.337.331.126.12.252.225.379.358.098.106.21.212.322.305.168.132.295.318.477.437.014.014.028.027.028.04 0 .172.126.252.238.345.043.026.043.066.043.106.014.066 0 .132.098.159.042.013.042.053.042.08 0 .079.014.159.112.198.042.014.028.067.028.106 0 .133.014.265.014.398V20.15c0 .066 0 .12-.07.146-.056.026-.056.08-.056.132v.292c0 .093.028.199-.098.252-.043.013-.028.066-.028.106 0 .093 0 .172-.015.265 0 .026 0 .08-.014.093-.168.08-.098.225-.112.358-.014.092.014.185-.098.238-.056.027-.028.106-.042.173-.014.08.014.172-.098.225-.056.026-.028.106-.042.172-.014.08.014.186-.098.226l-.014.013c.028.159-.169.252-.169.41 0 .04 0 .08-.056.094-.084.026-.098.106-.084.159.028.172-.112.252-.196.37-.014.014-.056.027-.056.04.014.16-.169.24-.169.385 0 .106-.126.106-.14.186-.014.066-.014.132-.084.198-.084.067-.21.146-.21.292 0 .106-.14.12-.183.212-.014.027-.056.066-.084.093a.376.376 0 00-.154.252c0 .08-.098.093-.14.146-.112.106-.225.225-.337.331-.098.08-.224.146-.21.305 0 .013-.014.053-.028.053-.197.12-.295.318-.491.437-.014.106-.154.106-.182.2 0 .026-.028.039-.056.039-.183 0-.253.146-.365.252-.14.132-.295.252-.42.398-.015.013-.029.026-.043.026-.182 0-.266.133-.378.239-.015.013-.029.026-.043.026-.182 0-.28.12-.378.239-.014.013-.028.026-.042.026-.183 0-.295.12-.393.239-.028.026-.07.026-.098.026-.07.014-.14 0-.168.093-.015.04-.07.04-.099.04-.07.013-.154 0-.182.093l-.014.013c-.168-.013-.252.146-.407.159-.042 0-.098 0-.112.04-.042.106-.14.093-.224.093-.084.013-.197-.014-.239.106 0 .013-.028.026-.042.026-.098.013-.196.013-.266.12-.028.04-.126.013-.182.026-.085 0-.155-.013-.21.093-.029.066-.113.04-.183.04-.098.013-.196-.027-.253.092-.014.04-.07.027-.112.027-.084 0-.168 0-.266.013-.07 0-.14 0-.168.08-.028.053-.085.04-.14.04-.14 0-.267 0-.407.013-.043 0-.113-.014-.127.04-.042.105-.14.079-.224.092-.21 0-.407 0-.617.013-.07 0-.14 0-.182.08-.014.04-.07.04-.113.04-.294 0-.588 0-.869.013-.084 0-.126-.026-.126-.12v-.119-4.838c0-.225 0-.225.238-.225h.295c.07 0 .14 0 .182-.08.028-.053.084-.04.126-.04.112 0 .239 0 .35-.013.085 0 .197.013.24-.093.013-.04.07-.026.111-.026.085 0 .169 0 .267-.013.07 0 .14 0 .182-.08.042-.08.126-.04.196-.053.085-.013.197.013.239-.093.014-.04.056-.026.098-.04.07-.013.154 0 .182-.092.014-.04.056-.04.084-.04.085 0 .169-.013.197-.106 0-.013.028-.027.042-.027.182 0 .28-.119.379-.238.014-.014.028-.027.042-.027.182 0 .28-.12.378-.238.014-.014.028-.027.042-.027.253-.013.35-.225.505-.358.126-.106.253-.212.365-.331.084-.093.21-.16.224-.305 0-.066.112-.133.183-.199.028-.026.056-.04.084-.08.07-.079.14-.159.154-.278.014-.066.112-.132.182-.199.014-.013.042-.013.042-.026-.014-.16.169-.239.169-.385 0-.026 0-.08.028-.092.126-.053.098-.16.112-.252 0-.067 0-.146.084-.186.07-.04.042-.12.056-.185.014-.08-.014-.186.098-.226.042-.013.028-.066.042-.106 0-.093 0-.185.014-.278 0-.04-.014-.093.028-.106.127-.053.099-.16.099-.239 0-1.617.014-3.221.014-4.838 0-.106-.028-.212.098-.279.042-.026.028-.08.028-.119-.014-.093.056-.212-.07-.278.112-.08.07-.2.07-.292v-.318-.331-.319c0-.066 0-.132-.084-.172-.028-.013-.042-.026-.042-.053 0-.252-.253-.331-.38-.49-.097-.12-.224-.213-.336-.332-.098-.12-.224-.212-.336-.318-.126-.106-.239-.225-.365-.345-.112-.106-.224-.225-.336-.318-.127-.106-.225-.212-.337-.318-.126-.12-.266-.238-.393-.358-.112-.106-.224-.212-.336-.331-.098-.106-.21-.212-.323-.318l-.378-.358-.323-.305-.379-.358c-.112-.106-.21-.212-.336-.305-.126-.106-.225-.212-.35-.318-.141-.12-.253-.239-.38-.371-.112-.106-.238-.212-.336-.318-.098-.12-.224-.212-.337-.318-.098-.093-.238-.16-.238-.332 0-.08-.182-.093-.238-.026-.183.212-.407.397-.603.583-.21.199-.421.398-.632.583a7.692 7.692 0 00-.476.464c-.112.106-.225.225-.35.318-.127.093-.225.212-.337.332l-.351.331a7.87 7.87 0 00-.337.331c-.112.107-.224.226-.336.332l-.379.358c-.126.106-.224.225-.35.318-.127.093-.225.212-.337.318a1067.557 1067.557 0 01-.701.663c-.112.106-.225.225-.337.318-.126.106-.224.225-.35.318-.127.106-.225.239-.35.332-.071.053-.085.092-.085.159V18.865c0 .212.126.332.35.332h5.708c.253 0 .253 0 .253.238v4.972c0 .065-.042.092-.098.092H2.697c-.084 0-.183.013-.239-.093-.014-.04-.07-.026-.112-.026-.084 0-.182-.014-.266 0-.112.013-.154-.08-.225-.12-.07-.04-.182.027-.224-.08-.014-.026-.028-.04-.042-.04-.252-.012-.365-.224-.519-.37-.042-.04-.098-.04-.14-.053-.056-.014-.112-.014-.112-.08.014-.146-.127-.199-.197-.291-.028-.04-.084-.12-.126-.133-.126-.053-.098-.146-.112-.239 0-.08 0-.145-.098-.198-.07-.027-.042-.107-.042-.173-.014-.093.014-.185-.099-.238-.042-.014-.028-.08-.028-.12v-.583C.005 19.965.005 18.255.005 16.56z" fill="#FE805C"/><path fill-rule="evenodd" clip-rule="evenodd" d="M12 24.453a.108.108 0 00.01-.047v-4.97c0-.081 0-.135-.01-.17v5.188zm0-18.037l.01-.011c.056-.067.238-.053.238.026 0 .135.086.205.17.274.024.019.047.038.069.058.037.035.076.069.115.103.078.067.156.135.221.215.066.07.143.141.221.212.04.035.078.07.116.106l.018.019c.119.125.227.238.36.352.063.053.12.106.176.16.056.052.112.105.175.158.094.07.173.146.254.225l.082.08.38.358.322.305.378.358c.113.106.225.212.323.318.112.12.224.225.336.331.063.06.13.12.197.18.066.059.133.118.196.178l.11.106c.07.07.143.142.227.212.074.062.15.136.224.21l.112.108c.043.04.084.081.124.12.08.079.157.155.24.225.038.036.077.07.116.103.078.068.156.136.221.215.049.051.1.098.15.144.066.06.131.12.187.188.041.051.095.095.15.138.114.09.229.182.229.352 0 .027.014.04.042.053.084.04.084.106.084.172v.968l.003.061c.008.08.015.168-.073.23.088.047.08.12.072.19-.003.031-.006.061-.002.09v.024c.003.035.006.073-.028.094-.107.056-.103.14-.1.23l.002.049c0 .808-.004 1.614-.007 2.419a555.874 555.874 0 00-.006 2.456c.003.073.008.157-.1.202-.033.01-.031.047-.029.081l.001.025c-.014.093-.014.185-.014.278-.004.013-.006.028-.007.042-.003.029-.006.055-.035.064-.086.03-.09.1-.093.167a.473.473 0 01-.005.059c-.004.02-.005.04-.005.061 0 .049-.002.096-.051.124-.084.04-.084.12-.084.186-.003.02-.004.04-.005.06-.004.076-.008.15-.107.192-.028.013-.028.066-.028.092 0 .07-.042.124-.083.18-.046.06-.093.121-.086.205 0 .007-.008.01-.019.014-.008.003-.017.006-.023.012a1.558 1.558 0 01-.056.05c-.058.05-.116.1-.126.15-.014.119-.084.198-.154.277-.019.027-.038.042-.056.056-.01.008-.02.015-.028.024l-.064.054c-.06.049-.119.097-.119.145-.01.107-.081.172-.152.235a.993.993 0 00-.072.07c-.112.12-.238.225-.365.331-.043.037-.08.08-.12.123-.1.112-.202.226-.385.235-.014 0-.028.013-.042.027-.098.119-.196.238-.378.238-.014 0-.028.014-.042.027-.099.119-.197.238-.379.238-.014 0-.042.014-.042.027-.028.093-.112.106-.196.106-.028 0-.07 0-.085.04-.022.074-.08.08-.139.087a.592.592 0 00-.043.005c-.013.005-.027.006-.04.008-.026.003-.048.005-.058.032-.032.082-.106.085-.177.088-.02.001-.042.002-.062.005-.021.004-.044.003-.067.002-.05-.002-.1-.004-.129.051-.042.08-.112.08-.182.08-.098.013-.182.013-.267.013l-.026-.001c-.036-.002-.074-.005-.086.027-.038.096-.133.095-.213.093h-.025c-.112.013-.239.013-.35.013h-.022c-.038-.002-.082-.004-.105.04-.042.08-.112.08-.182.08h-.295c-.238 0-.238 0-.238.225v4.958c0 .093.042.119.126.119.28-.013.575-.013.87-.013.042 0 .098 0 .112-.04.042-.08.112-.08.182-.08.21-.013.407-.013.617-.013.02-.003.04-.004.06-.005.066-.003.132-.006.164-.088.012-.044.064-.042.105-.04a.43.43 0 00.022 0c.14-.013.266-.013.406-.013l.029.001c.046.002.088.004.112-.04.028-.08.098-.08.168-.08.098-.013.182-.013.266-.013h.026c.037.003.075.005.086-.027.043-.09.108-.09.18-.09.024 0 .048 0 .073-.003l.048.003c.057.005.112.01.134-.042.05-.096.112-.095.185-.093h.026a.318.318 0 01.075-.004c.044.001.09.002.107-.023.063-.094.147-.104.235-.115a1.15 1.15 0 00.031-.004c.014 0 .042-.013.042-.026.033-.094.11-.098.181-.102a.57.57 0 00.058-.004h.025c.078.001.161.002.2-.093.013-.04.07-.04.111-.04.071-.006.127-.043.183-.08.066-.043.133-.086.224-.079l.014-.013c.023-.075.08-.08.14-.087a.5.5 0 00.042-.006c.029 0 .085 0 .099-.04.022-.075.072-.08.128-.087a.581.581 0 00.04-.006c.028 0 .07 0 .098-.026.098-.12.21-.239.393-.239.014 0 .028-.013.042-.026.098-.12.196-.239.378-.239.014 0 .028-.013.043-.026l.062-.063c.086-.09.169-.176.316-.176.014 0 .028-.013.042-.026.084-.098.181-.183.278-.269.048-.042.096-.085.143-.13.027-.025.052-.053.076-.08.077-.087.15-.171.289-.171.028 0 .056-.013.056-.04.013-.043.05-.066.088-.09.043-.026.087-.052.094-.109.098-.06.172-.139.245-.218.074-.08.148-.16.246-.22.014 0 .028-.039.028-.052-.012-.136.078-.204.165-.27l.045-.035c.056-.053.112-.11.169-.166.056-.056.112-.112.168-.165a.228.228 0 01.062-.048c.039-.024.078-.048.078-.098a.376.376 0 01.154-.252.5.5 0 00.084-.093c.019-.04.056-.066.092-.09.046-.032.09-.062.09-.122 0-.13.102-.208.184-.27l.027-.022c.059-.055.068-.11.078-.165a.962.962 0 01.006-.033c.007-.036.035-.056.065-.076.037-.025.075-.052.075-.11 0-.07.042-.124.083-.179.046-.06.093-.122.086-.205 0-.008.015-.016.03-.024.01-.006.02-.01.026-.016a.935.935 0 01.075-.09c.072-.079.142-.155.121-.281-.014-.053 0-.133.084-.16.056-.013.056-.052.056-.092 0-.075.044-.136.088-.195.048-.067.096-.132.08-.216l.015-.013c.086-.03.09-.1.093-.167 0-.02.002-.04.005-.059.005-.022.005-.045.005-.068 0-.045 0-.086.037-.104.086-.04.09-.105.093-.169 0-.019.002-.038.005-.056.005-.023.005-.046.005-.069 0-.045 0-.086.037-.104.087-.04.09-.105.093-.175.001-.021.002-.042.005-.063.004-.035.002-.07 0-.106-.006-.099-.012-.194.113-.252.014-.014.014-.067.014-.093.014-.093.014-.172.014-.265 0-.008 0-.016-.002-.025-.002-.034-.004-.07.03-.081.107-.045.103-.128.1-.209-.002-.014-.002-.029-.002-.043v-.292c0-.053 0-.106.056-.132.07-.027.07-.08.07-.146V11.03c0-.066-.003-.133-.007-.199-.003-.066-.007-.133-.007-.199l.001-.024c.002-.035.005-.071-.029-.082-.098-.04-.112-.12-.112-.199 0-.026 0-.066-.042-.08-.08-.02-.086-.068-.092-.12a.477.477 0 00-.006-.038c0-.04 0-.08-.043-.106l-.038-.031c-.1-.081-.2-.16-.2-.314 0-.013-.014-.026-.028-.04-.103-.067-.187-.155-.272-.243-.066-.068-.131-.136-.205-.194a3.403 3.403 0 01-.322-.305 4.778 4.778 0 00-.253-.242L22.22 8.5a7.884 7.884 0 01-.168-.166c-.056-.056-.112-.112-.169-.165l-.35-.332-.337-.318-.124-.12c-.08-.078-.157-.154-.24-.224l-.337-.319-.35-.331-.351-.331c-.112-.12-.224-.226-.337-.332l-.378-.358a6.956 6.956 0 00-.323-.318l-.364-.345-.337-.318-.114-.105c-.08-.072-.161-.146-.237-.226a7.812 7.812 0 00-.336-.331l-.379-.358c-.056-.047-.112-.1-.168-.153-.056-.053-.112-.106-.168-.152a2.605 2.605 0 01-.267-.238l-.084-.08a3.264 3.264 0 01-.298-.268 9.447 9.447 0 00-.095-.09l-.113-.104c-.073-.067-.144-.131-.21-.201l-.378-.358-.337-.318-.124-.12a4.217 4.217 0 00-.24-.225c-.037-.035-.073-.072-.11-.109a1.854 1.854 0 00-.227-.209c-.047-.037-.088-.082-.129-.128-.092-.103-.186-.207-.361-.217-.022 0-.035-.015-.046-.028l-.01-.011a2.1 2.1 0 01-.042-.047c-.082-.094-.167-.19-.323-.179-.028 0-.042-.013-.056-.04-.028-.092-.113-.092-.183-.092C13 .132 12.977.13 12.955.13c-.08-.004-.158-.008-.202-.101-.011-.032-.05-.03-.086-.028l-.026.001H12v6.414z" fill="#FE805C"/></symbol>
<symbol id="i-meeting" viewBox="0 0 16 16" xmlns="http://www.w3.org/2000/svg"><path d="M8 4a2 2 0 100-4 2 2 0 000 4zM10.996 9.436L10.542 5.9a.996.996 0 00-.994-.9H9a.504.504 0 00-.354.146L8 5.792l-.646-.646A.504.504 0 007 5h-.547a.994.994 0 00-.994.887l-.455 3.55A.499.499 0 005.5 10h.54l.418 5.1c.05.512.479.9.995.9h1.095a1 1 0 00.996-.91L9.96 10h.539a.499.499 0 00.496-.564zM13 4a2 2 0 100-4 2 2 0 000 4zM3 0C1.897 0 1 .897 1 2s.897 2 2 2c1.102 0 2-.897 2-2s-.898-2-2-2zM15.996 9.436l-.454-3.535a.996.996 0 00-.994-.9H14a.504.504 0 00-.354.145L13 5.792l-.646-.646A.503.503 0 0012 5h-.548c-.062 0-.118.022-.177.033.129.228.23.475.26.752l.453 3.524c.056.429-.078.861-.366 1.186a1.45 1.45 0 01-.496.352l.332 3.253c.05.513.479.9.995.9h1.095a1 1 0 00.996-.909L14.96 10h.539a.499.499 0 00.496-.564zM4.374 10.49a1.498 1.498 0 01-.362-1.179l.455-3.55c.026-.267.124-.507.249-.729C4.66 5.022 4.606 5 4.548 5H4a.504.504 0 00-.354.146L3 5.792l-.646-.646A.503.503 0 002 5h-.548a.994.994 0 00-.994.887l-.455 3.55A.499.499 0 00.5 10h.54l.418 4.1c.05.512.479.9.995.9h1.095a1 1 0 00.996-.909l.332-3.245a1.5 1.5 0 01-.502-.356z"/></symbol>
<symbol id="i-odnoklass" viewBox="0 0 44 44" fill="none" xmlns="http://www.w3.org/2000/svg"><path fill-rule="evenodd" clip-rule="evenodd" d="M22 0C9.85 0 0 9.85 0 22s9.85 22 22 22 22-9.85 22-22S34.15 0 22 0z" fill="#F7931E"/><path d="M22.5 11a5.5 5.5 0 100 11 5.5 5.5 0 000-11zm0 7.774a2.274 2.274 0 110-4.548 2.274 2.274 0 010 4.548zM24.401 26.547c2.226-.453 3.56-1.508 3.631-1.564a1.512 1.512 0 00-1.892-2.36c-.014.012-1.437 1.103-3.778 1.105-2.341-.002-3.794-1.093-3.808-1.105a1.512 1.512 0 10-1.892 2.36c.072.057 1.461 1.139 3.75 1.582l-3.19 3.333a1.512 1.512 0 102.177 2.1l2.963-3.157 3.263 3.177a1.512 1.512 0 002.137-2.14l-3.361-3.33zM22.362 23.728c-.004 0 .005 0 0 0-.004 0 .005 0 0 0z" fill="#fff"/></symbol>
<symbol id="i-options" viewBox="0 0 4 18" xmlns="http://www.w3.org/2000/svg"><path fill-rule="evenodd" clip-rule="evenodd" d="M2 4a2 2 0 10-.001-4.001A2 2 0 002 4zm0 3a2 2 0 10.001 4.001A2 2 0 002 7zm-2 9a2 2 0 114.001.001A2 2 0 010 16z"/></symbol>
<symbol id="i-pdf" viewBox="0 0 18 22" fill="none" xmlns="http://www.w3.org/2000/svg"><path d="M15.525 0H2.475C1.11 0 0 1.13 0 2.52v16.958c0 1.39 1.11 2.52 2.475 2.52h13.05c1.365 0 2.475-1.13 2.475-2.52V2.52C18.001 1.13 16.89 0 15.525 0zM4.501 16.5h-.45v1.145c0 .38-.302.688-.675.688a.682.682 0 01-.675-.688V13.52c0-.38.303-.687.675-.687h1.125c.992 0 1.8.822 1.8 1.833 0 1.01-.808 1.834-1.8 1.834zm6.3.23c0 .884-.707 1.604-1.576 1.604h-1.35a.682.682 0 01-.675-.687v-4.125c0-.38.302-.688.675-.688h1.35c.868 0 1.575.72 1.575 1.605v2.29zm3.825-1.605c.373 0 .675.308.675.688 0 .379-.302.687-.675.687h-1.575v1.145c0 .38-.303.688-.675.688a.682.682 0 01-.675-.688v-3.207c0-.885.706-1.605 1.575-1.605h1.35c.373 0 .675.308.675.687 0 .38-.302.688-.675.688h-1.35a.228.228 0 00-.225.23v.687h1.575z" fill="#FC573B"/></symbol>
<symbol id="i-pen" viewBox="0 0 16 16" xmlns="http://www.w3.org/2000/svg"><path fill-rule="evenodd" clip-rule="evenodd" d="M12.018 6.679L9.323 3.984l1.948-1.95 2.694 2.695-1.947 1.95zM5.08 13.625l-2.977.27.264-2.955 5.617-5.617 2.696 2.696-5.6 5.606zM15.403 3.338v-.001L12.663.599c-.74-.74-2.014-.774-2.716-.07L.952 9.527a1.973 1.973 0 00-.57 1.214l-.379 4.17a1.002 1.002 0 001.087 1.086l4.17-.38a1.974 1.974 0 001.214-.567l8.997-8.997c.728-.73.697-1.948-.068-2.714z"/></symbol>
<symbol id="i-plan" viewBox="0 0 16 16" xmlns="http://www.w3.org/2000/svg"><path d="M8.167 1.333h-.734A1.842 1.842 0 005.667 0C4.827 0 4.12.567 3.9 1.333h-.733c-.274 0-.5.227-.5.5v1c0 .64.526 1.167 1.166 1.167H7.5c.64 0 1.167-.527 1.167-1.167v-1c0-.273-.227-.5-.5-.5z"/><path d="M9.5 2h-.167v.833c0 1.014-.82 1.834-1.833 1.834H3.833A1.832 1.832 0 012 2.833V2h-.167C.82 2 0 2.82 0 3.833v8.334C0 13.18.82 14 1.833 14h4.92l.147-.82c.067-.373.24-.707.507-.98l.533-.533H2.5a.504.504 0 01-.5-.5c0-.274.227-.5.5-.5h6.333c.034 0 .06 0 .094.013h.006l2.4-2.4V3.833C11.333 2.82 10.513 2 9.5 2zm-.667 7.5H2.5A.504.504 0 012 9c0-.273.227-.5.5-.5h6.333c.274 0 .5.227.5.5s-.226.5-.5.5zm0-2.167H2.5a.504.504 0 01-.5-.5c0-.273.227-.5.5-.5h6.333c.274 0 .5.227.5.5 0 .274-.226.5-.5.5zM8.351 16a.498.498 0 01-.492-.587l.354-2.004a.502.502 0 01.138-.266l4.95-4.95c.608-.609 1.206-.444 1.532-.118l.825.825a1.167 1.167 0 010 1.65l-4.95 4.95a.493.493 0 01-.267.139l-2.003.353a.48.48 0 01-.087.008zm2.004-.853h.006-.006z"/></symbol>
<symbol id="i-plus" viewBox="0 0 10 10" xmlns="http://www.w3.org/2000/svg"><path d="M10 6.272H6.258V10H3.72V6.272H0V3.728h3.72V0h2.538v3.728H10v2.544z"/></symbol>
<symbol id="i-ppt" viewBox="0 0 19 22" fill="none" xmlns="http://www.w3.org/2000/svg"><path d="M15.813 0H2.52C1.13 0 0 1.13 0 2.52v16.958c0 1.39 1.13 2.52 2.52 2.52h13.293c1.39 0 2.52-1.13 2.52-2.52V2.52A2.522 2.522 0 0015.813 0zM4.584 16.5h-.458v1.145a.688.688 0 01-1.375 0V13.52c0-.38.308-.687.688-.687h1.145c1.01 0 1.833.822 1.833 1.833 0 1.01-.822 1.834-1.833 1.834zm4.583 0H8.71v1.145a.688.688 0 01-1.375 0V13.52c0-.38.308-.687.688-.687h1.145c1.01 0 1.833.822 1.833 1.833 0 1.01-.822 1.834-1.833 1.834zm5.73-2.292h-.458v3.437a.688.688 0 01-1.375 0v-3.437h-.46a.688.688 0 010-1.375h2.293a.688.688 0 010 1.375z" fill="#FF8135"/></symbol>
<symbol id="i-rar" viewBox="0 0 19 22" fill="none" xmlns="http://www.w3.org/2000/svg"><path d="M15.813 0H2.52C1.13 0 0 1.13 0 2.52v16.958c0 1.39 1.13 2.52 2.52 2.52h13.293c1.39 0 2.52-1.13 2.52-2.52V2.52A2.522 2.522 0 0015.813 0zM6.416 14.895c0 .607-.342 1.13-.84 1.402l.701.936a.687.687 0 11-1.098.825l-1.055-1.405v.992a.688.688 0 01-1.375 0V13.52c0-.38.308-.687.688-.687h1.374c.885 0 1.605.719 1.605 1.604v.458zM11 17.645a.688.688 0 01-1.375 0V16.5h-.917v1.145a.688.688 0 01-1.375 0v-2.98c0-1.01.822-1.832 1.833-1.832 1.01 0 1.833.822 1.833 1.833v2.98H11zm4.584-2.75c0 .607-.342 1.13-.84 1.402l.701.936a.687.687 0 11-1.098.825l-1.055-1.405v.992a.688.688 0 01-1.375 0V13.52c0-.38.308-.687.688-.687h1.375c.884 0 1.604.719 1.604 1.604v.458z" fill="#9556D0"/></symbol>
<symbol id="i-realization" viewBox="0 0 16 16" xmlns="http://www.w3.org/2000/svg"><path d="M13.142 11.345l-.459-.928a5.282 5.282 0 01-4.097 2.824l.44-1.05a.096.096 0 00-.132-.122l-3.766 1.862a.11.11 0 000 .198l3.766 1.861a.095.095 0 00.13-.123l-.43-1.03a6.868 6.868 0 005.102-3.006.98.98 0 01-.554-.486zM2.858 4.655l.46.928A5.282 5.282 0 017.413 2.76l-.439 1.049a.096.096 0 00.131.123l3.766-1.863a.11.11 0 000-.198L7.107.01a.096.096 0 00-.109.016.097.097 0 00-.023.107l.432 1.03A6.87 6.87 0 002.304 4.17a.98.98 0 01.554.485zM2.75 8.499l1.059.442a.095.095 0 00.123-.13L2.07 5.045a.11.11 0 00-.198 0L.01 8.81a.095.095 0 00.123.13l1.026-.429a6.864 6.864 0 003.076 5.224.989.989 0 01.503-.594l.887-.438A5.28 5.28 0 012.75 8.498zM4.714 8A3.286 3.286 0 1011.286 8 3.286 3.286 0 004.714 8zM15.974 7.082a.096.096 0 00-.107-.023l-1.026.429a6.864 6.864 0 00-3.076-5.223.989.989 0 01-.503.593l-.887.439A5.28 5.28 0 0113.25 7.5l-1.058-.442a.095.095 0 00-.107.023.095.095 0 00-.016.107l1.862 3.766a.11.11 0 00.198 0c1.5-3.034 1.088-2.203 1.86-3.766a.095.095 0 00-.015-.107z"/></symbol>
<symbol id="i-request" viewBox="0 0 16 16" xmlns="http://www.w3.org/2000/svg"><path d="M15.844.065a.363.363 0 00-.388-.017L.184 8.775a.363.363 0 00.065.66l4.56 1.52 1.759 4.806a.364.364 0 00.383.237.359.359 0 00.24-.138l2.59-3.247L13.34 13.8a.356.356 0 00.302-.033.362.362 0 00.171-.252L15.995.424a.363.363 0 00-.15-.359zM7.13 11.227a.364.364 0 00-.069.172l-.328 2.693-1.219-3.33 7.112-6.948-5.496 7.413z"/></symbol>
<symbol id="i-rup" viewBox="0 0 16 14" xmlns="http://www.w3.org/2000/svg"><path d="M0 5.956c-.007.604.366 1.149.932 1.36V4.726c0-.037.02-.093.02-.13-.571.21-.95.753-.952 1.36zM5.091 9.163H2.648l.914 3.32c.135.506.594.858 1.119.857.373.005.726-.168.95-.466.228-.283.298-.661.187-1.007l-.727-2.704zM.951 4.576H.97v-.019c0 .019 0 .019-.019.019zM14.322 4.315h-.15V7.67h.15a1.678 1.678 0 000-3.356zM1.492 4.725v2.648c.02.686.582 1.231 1.268 1.23h3.394V3.57H2.76c-.671 0-1.268.485-1.268 1.156zM6.713 8.678l6.9 2.76V.66l-6.9 2.76v5.258z"/></symbol>
<symbol id="i-settings" viewBox="0 0 20 20" xmlns="http://www.w3.org/2000/svg"><path fill-rule="evenodd" clip-rule="evenodd" d="M9.375 18h1.25v-.767c0-.935.575-1.775 1.464-2.142.92-.383 1.925-.195 2.588.471l.539.541.888-.888-.545-.544c-.663-.662-.85-1.666-.477-2.557v-.002l.011-.028a2.324 2.324 0 012.14-1.459H18v-1.25h-.767c-.934 0-1.776-.575-2.142-1.464-.384-.92-.195-1.925.47-2.588l.541-.539-.886-.887-.545.545c-.662.662-1.665.849-2.556.477-.914-.377-1.49-1.217-1.49-2.152V2h-1.25v.767c0 .935-.575 1.775-1.464 2.142-.92.385-1.924.196-2.587-.471l-.54-.541-.887.888.545.544c.662.662.85 1.666.477 2.557-.376.913-1.217 1.489-2.152 1.489H2v1.25h.767c.935 0 1.776.575 2.142 1.464.385.92.196 1.925-.47 2.588l-.541.539.887.887.545-.545c.662-.662 1.665-.849 2.556-.477.913.377 1.489 1.217 1.489 2.152V18zm1.568 2H9.05a1.678 1.678 0 01-1.676-1.676v-1.091c0-.147-.117-.248-.227-.293-.144-.059-.298-.071-.404.032l-.77.771a1.683 1.683 0 01-2.377 0l-1.34-1.34a1.67 1.67 0 01-.492-1.19c0-.449.176-.871.495-1.189l.768-.765c.105-.105.094-.259.047-.37-.06-.147-.16-.264-.308-.264H1.683A1.684 1.684 0 010 10.943V9.051c0-.925.752-1.676 1.677-1.676h1.09c.147 0 .248-.118.293-.228.06-.144.072-.299-.032-.403l-.771-.77a1.685 1.685 0 010-2.377l1.34-1.34a1.667 1.667 0 011.188-.492h.002c.449 0 .872.175 1.189.494l.765.769c.105.106.26.094.37.047.147-.061.264-.161.264-.308V1.683C7.375.755 8.13 0 9.058 0h1.892c.924 0 1.676.752 1.676 1.676v1.091c0 .147.117.248.226.293.146.06.3.073.405-.032l.77-.771a1.683 1.683 0 012.377 0l1.34 1.341c.319.317.492.739.491 1.189 0 .448-.174.871-.494 1.188l-.768.766c-.105.105-.095.259-.047.37.06.147.16.264.308.264h1.083c.928 0 1.683.754 1.683 1.682v1.892c0 .925-.752 1.676-1.677 1.676h-1.09c-.146 0-.248.118-.293.228l-.014.033c-.045.111-.057.266.047.37l.77.77a1.685 1.685 0 010 2.377l-1.34 1.34a1.667 1.667 0 01-1.187.492h-.002c-.45 0-.873-.175-1.19-.494l-.764-.769c-.105-.105-.261-.093-.371-.047-.146.061-.263.161-.263.308v1.084c0 .928-.755 1.683-1.683 1.683zM10 8.5c-.827 0-1.5.673-1.5 1.5s.673 1.5 1.5 1.5 1.5-.673 1.5-1.5-.673-1.5-1.5-1.5zm0 5c-1.93 0-3.5-1.57-3.5-3.5S8.07 6.5 10 6.5s3.5 1.57 3.5 3.5-1.57 3.5-3.5 3.5z"/></symbol>
<symbol id="i-time" viewBox="0 0 20 20" xmlns="http://www.w3.org/2000/svg"><path fill-rule="evenodd" clip-rule="evenodd" d="M14 9h-3V6a1 1 0 10-2 0v4a1 1 0 001 1h4a1 1 0 100-2zm-4 9c-4.411 0-8-3.589-8-8s3.589-8 8-8 8 3.589 8 8-3.589 8-8 8zm0-18C4.486 0 0 4.486 0 10s4.486 10 10 10 10-4.486 10-10S15.514 0 10 0z"/></symbol>
<symbol id="i-user" viewBox="0 0 16 16" xmlns="http://www.w3.org/2000/svg"><path d="M7.886 7.707c1.059 0 1.976-.38 2.725-1.129a3.728 3.728 0 001.129-2.725 3.73 3.73 0 00-1.13-2.724A3.73 3.73 0 007.887 0C6.827 0 5.91.38 5.161 1.129a3.729 3.729 0 00-1.129 2.724c0 1.06.38 1.976 1.13 2.725a3.73 3.73 0 002.724 1.13zM14.629 12.303a9.501 9.501 0 00-.13-1.01 7.962 7.962 0 00-.248-1.017 5.018 5.018 0 00-.418-.948 3.576 3.576 0 00-.63-.821 2.778 2.778 0 00-.905-.57c-.351-.138-.74-.208-1.156-.208-.163 0-.321.067-.626.265-.188.123-.408.264-.653.421-.21.134-.493.259-.844.372-.342.11-.69.167-1.032.167-.343 0-.69-.056-1.033-.167a3.73 3.73 0 01-.844-.372 89.19 89.19 0 01-.653-.42c-.305-.2-.463-.266-.626-.266-.416 0-.805.07-1.155.209-.352.14-.657.33-.906.569-.237.227-.45.503-.63.82a5.03 5.03 0 00-.417.949c-.1.313-.184.654-.249 1.016a9.489 9.489 0 00-.13 1.012c-.02.306-.032.623-.032.944 0 .836.266 1.512.79 2.01.517.493 1.2.742 2.033.742h7.704c.832 0 1.516-.25 2.033-.742.524-.498.79-1.174.79-2.01 0-.322-.012-.64-.033-.945z"/></symbol>
<symbol id="i-vector" viewBox="0 0 22 16" fill="none" xmlns="http://www.w3.org/2000/svg"><path d="M2 8.5l6 6L20.5 2"/></symbol>
<symbol id="i-vk" viewBox="0 0 44 44" fill="none" xmlns="http://www.w3.org/2000/svg"><path fill-rule="evenodd" clip-rule="evenodd" d="M22 0C9.85 0 0 9.85 0 22s9.85 22 22 22 22-9.85 22-22S34.15 0 22 0z" fill="#5181B8"/><path fill-rule="evenodd" clip-rule="evenodd" d="M32.495 16.88c.153-.507 0-.88-.728-.88H29.36c-.611 0-.894.322-1.047.677 0 0-1.223 2.969-2.957 4.897-.561.558-.816.735-1.122.735-.153 0-.375-.177-.375-.684V16.88c0-.609-.177-.88-.687-.88H19.39c-.383 0-.613.283-.613.55 0 .578.867.71.956 2.334v3.527c0 .773-.14.913-.446.913-.816 0-2.8-2.981-3.978-6.393-.23-.663-.462-.931-1.077-.931h-2.407c-.688 0-.825.322-.825.677 0 .634.816 3.78 3.8 7.941C16.787 27.46 19.59 29 22.14 29c1.53 0 1.72-.342 1.72-.931V25.92c0-.684.144-.82.629-.82.357 0 .969.177 2.396 1.547C28.518 28.272 28.787 29 29.706 29h2.406c.688 0 1.032-.342.833-1.017-.217-.673-.996-1.65-2.03-2.807-.56-.66-1.402-1.37-1.657-1.725-.357-.456-.255-.66 0-1.065 0 0 2.932-4.11 3.238-5.506z" fill="#fff"/></symbol>
<symbol id="i-xls" viewBox="0 0 18 22" fill="none" xmlns="http://www.w3.org/2000/svg"><path d="M15.525 0H2.475C1.11 0 0 1.13 0 2.52v16.958c0 1.39 1.11 2.52 2.475 2.52h13.05c1.365 0 2.475-1.13 2.475-2.52V2.52C18.001 1.13 16.89 0 15.525 0zm-9.31 17.313c.181.332.065.75-.261.935a.657.657 0 01-.327.086.675.675 0 01-.591-.353l-.535-.982-.535.982a.674.674 0 01-.59.353.657.657 0 01-.328-.086.693.693 0 01-.262-.935l.943-1.729-.943-1.728a.693.693 0 01.262-.935.669.669 0 01.918.267l.535.981.535-.981a.669.669 0 01.918-.267.693.693 0 01.262.935l-.943 1.728.943 1.729zm3.91 1.02h-2.25a.682.682 0 01-.675-.688V13.52c0-.38.302-.687.675-.687.372 0 .675.308.675.687v3.438h1.575c.373 0 .675.308.675.687 0 .38-.302.688-.675.688zm3.189-3.438h.374c.89 0 1.613.772 1.613 1.72 0 .947-.723 1.718-1.613 1.718h-1.312a.682.682 0 01-.675-.688c0-.38.302-.687.675-.687h1.312c.142 0 .263-.158.263-.344 0-.186-.12-.344-.263-.344h-.374c-.89 0-1.613-.771-1.613-1.718 0-.948.723-1.72 1.613-1.72h1.312c.373 0 .675.309.675.688 0 .38-.302.688-.675.688h-1.312c-.142 0-.263.158-.263.344 0 .187.12.343.263.343z" fill="#45A969"/></symbol>
<symbol id="i-yandex" viewBox="0 0 44 44" fill="none" xmlns="http://www.w3.org/2000/svg"><path fill-rule="evenodd" clip-rule="evenodd" d="M22 0C9.85 0 0 9.85 0 22s9.85 22 22 22 22-9.85 22-22S34.15 0 22 0z" fill="#ED1F24"/><path d="M26.694 11h-3.176c-3.12 0-5.766 2.493-5.766 7.334 0 2.903 1.282 5.044 3.565 6.1l-4.261 8.097c-.14.264 0 .469.223.469h1.977c.167 0 .28-.059.335-.205l3.872-7.95h1.392v7.95c0 .087.084.205.195.205h1.727c.167 0 .223-.088.223-.234V11.293c0-.205-.111-.293-.306-.293zm-1.839 11.968h-1.17c-1.838 0-3.62-1.408-3.62-4.928 0-3.667 1.67-5.163 3.37-5.163h1.42v10.091z" fill="#fff"/></symbol>
<symbol id="i-zip" viewBox="0 0 19 22" fill="none" xmlns="http://www.w3.org/2000/svg"><path d="M15.813 0H2.52C1.13 0 0 1.13 0 2.52v16.958c0 1.39 1.13 2.52 2.52 2.52h13.293c1.39 0 2.52-1.13 2.52-2.52V2.52A2.522 2.522 0 0015.813 0zM5.73 16.958a.688.688 0 010 1.375H3.437a.686.686 0 01-.6-1.02l1.724-3.104H3.438a.688.688 0 010-1.375H5.73a.686.686 0 01.6 1.02l-1.724 3.104H5.73zm3.667.687a.688.688 0 01-1.375 0V13.52a.688.688 0 011.375 0v4.125zm3.781-1.145h-.803v1.145a.688.688 0 01-1.375 0V13.52c0-.38.308-.687.688-.687h1.145c1.01 0 1.833.822 1.833 1.833.001.926-.736 1.834-1.488 1.834z" fill="#FC573B"/></symbol>
</svg>